Coordinates
version=1
nRows=17
nColumns=24
inDegrees=yes

Units are S.I. units (second, meters, Newtons, ...)
Angles are in degrees.

endheader
time	pelvis_tilt	pelvis_list	pelvis_rotation	pelvis_tx	pelvis_ty	pelvis_tz	hip_flexion_r	hip_adduction_r	hip_rotation_r	knee_angle_r	ankle_angle_r	subtalar_angle_r	mtp_angle_r	hip_flexion_l	hip_adduction_l	hip_rotation_l	knee_angle_l	ankle_angle_l	subtalar_angle_l	mtp_angle_l	lumbar_extension	lumbar_bending	lumbar_rotation
      1.20016667	     -1.42709848	      0.82235833	     -4.27859480	      0.08936708	      1.03315999	      0.33779934	    -18.76523413	      0.01552520	     -1.86891717	     -7.58550378	     18.29583142	      4.63808629	      5.63399876	     28.95821876	     -1.48872369	     -3.12239134	     -7.27144513	      8.54840753	      5.78292917	      6.60008642	     -7.26491362	      2.23524181	      1.26997065
      1.20433333	     -1.41438800	      0.86632009	     -4.39490390	      0.09566100	      1.03259671	      0.33744037	    -18.93653784	     -0.14876835	     -1.85477551	     -7.97513169	     18.10486296	      4.71308184	      5.68078772	     28.94540680	     -1.39833038	     -2.99812639	     -7.90973814	      8.25523447	      5.74957607	      6.61272280	     -7.23079998	      2.13390103	      1.27744969
      1.20850000	     -1.38811766	      0.94665569	     -4.50476008	      0.10203494	      1.03210337	      0.33703176	    -19.06316339	     -0.37389385	     -2.12005637	     -8.49166543	     18.01197118	      5.26511520	      6.08522895	     28.87328215	     -1.25628171	     -2.78309579	     -8.45682517	      7.84279208	      5.51784911	      6.73484473	     -7.17072349	      1.93571045	      1.41126206
      1.21266667	     -1.37618583	      1.02937072	     -4.60813587	      0.10844558	      1.03165189	      0.33661141	    -19.18249421	     -0.59550298	     -2.29297824	     -8.98511993	     17.80398212	      5.62688074	      6.89333103	     28.81557116	     -1.11088195	     -2.57751417	     -9.00491515	      7.37802750	      5.24959693	      6.96493323	     -7.10115300	      1.75192621	      1.46670471
      1.21683333	     -1.38047849	      1.08231692	     -4.71619255	      0.11487575	      1.03125713	      0.33623484	    -19.30431226	     -0.77402096	     -2.27428672	     -9.42800487	     17.41133445	      5.71381093	      7.11871588	     28.79284638	     -1.01603972	     -2.48729521	     -9.59432105	      6.93651293	      5.25489219	      7.01747274	     -7.02324667	      1.60412404	      1.47633136
      1.22100000	     -1.35899884	      1.15590306	     -4.77948165	      0.12131201	      1.03092330	      0.33571168	    -19.41784158	     -0.97983756	     -2.45499390	     -9.94276383	     17.00369583	      5.90992175	     10.92249820	     28.73818074	     -0.85865942	     -2.23658408	    -10.16647708	      6.43900715	      4.84734878	      7.86795509	     -6.96232012	      1.46695423	      1.36036105
      1.22516667	     -1.32386378	      1.24468804	     -4.91196570	      0.12777033	      1.03070713	      0.33532725	    -19.51339394	     -1.22407220	     -2.52415306	    -10.51525246	     16.71098452	      6.17270572	     11.03963240	     28.68357331	     -0.74482946	     -2.28725974	    -10.78410045	      5.94514854	      4.80252715	      7.87143031	     -6.92321575	      1.25984951	      1.58306065
      1.22933333	     -1.32559033	      1.32426874	     -5.00637463	      0.13427537	      1.03049882	      0.33486769	    -19.57097038	     -1.44360553	     -2.58578080	    -11.08192059	     16.26728281	      6.36642943	     11.14428147	     28.66345498	     -0.62094792	     -2.22558062	    -11.38819225	      5.43673274	      4.66224784	      7.86894598	     -6.83160003	      1.08208026	      1.59414868
      1.23350000	     -1.31300221	      1.42734719	     -5.08423118	      0.14077124	      1.03034934	      0.33432404	    -19.59099226	     -1.70093990	     -2.79423163	    -11.75941192	     15.92569633	      6.71624690	     11.46309805	     28.63255315	     -0.45449208	     -2.09769324	    -11.99859375	      4.91436229	      4.26753736	      7.86944459	     -6.74611988	      0.88818864	      1.64865276
      1.23766667	     -1.29961645	      1.53704133	     -5.15884189	      0.14730141	      1.03027932	      0.33378217	    -19.60668650	     -1.96226646	     -2.94711702	    -12.43483971	     15.47426363	      6.97818202	     11.96790147	     28.60307646	     -0.28721767	     -2.00626753	    -12.61773866	      4.39876038	      3.94949514	      7.86482602	     -6.66199247	      0.67572184	      1.66414394
      1.24183333	     -1.27575533	      1.61473163	     -5.23178647	      0.15380324	      1.03030525	      0.33322596	    -19.62157323	     -2.18761762	     -3.02072514	    -13.11147729	     14.83562201	      7.06052610	     16.00494964	     28.58037058	     -0.15932880	     -1.95937147	    -13.27849098	      3.93587483	      3.75145269	      7.80764216	     -6.60748718	      0.52922023	      1.64010006
      1.24600000	     -1.27615373	      1.72198451	     -5.29441406	      0.16035960	      1.03033258	      0.33264009	    -19.57368927	     -2.44744482	     -3.16320549	    -13.87198025	     14.30267310	      7.28899897	     16.08425698	     28.59347959	     -0.00192168	     -1.93102676	    -13.97038005	      3.54214322	      3.53541393	      7.78948421	     -6.49881089	      0.32370651	      1.67293114
      1.25016667	     -1.24544683	      1.83384083	     -5.34346783	      0.16688937	      1.03046499	      0.33200748	    -19.53009831	     -2.71617542	     -3.32899608	    -14.68281568	     13.74070260	      7.53725924	     16.27125650	     28.56938632	      0.17285685	     -1.86382201	    -14.64904952	      3.14431684	      3.26425419	      7.75632286	     -6.43593873	      0.11956723	      1.67173454
      1.25433333	     -1.18587047	      1.96324177	     -5.40052536	      0.17342624	      1.03073067	      0.33139176	    -19.49648709	     -3.00853337	     -3.45790078	    -15.51189326	     13.06441395	      7.68559378	     18.62468923	     28.49784170	      0.36702611	     -1.78738893	    -15.30228211	      2.78147270	      2.93213127	      7.41659205	     -6.40901756	     -0.11772884	      1.61986303
      1.25850000	     -1.20509820	      2.05061080	     -5.41860660	      0.17996129	      1.03088134	      0.33067074	    -19.34209430	     -3.24521748	     -3.62486166	    -16.42626050	     12.42884147	      7.90345018	     18.73782979	     28.55454359	      0.51766609	     -1.75201720	    -16.05115103	      2.50077085	      2.81626461	      7.39051706	     -6.28470538	     -0.27473689	      1.65055742
      1.26266667	     -1.18782173	      2.17181315	     -5.43890439	      0.18649491	      1.03115698	      0.32995174	    -19.19310764	     -3.52664869	     -3.80942193	    -17.39470608	     11.76584465	      8.11870555	     18.94625872	     28.54208009	      0.71259866	     -1.67826739	    -16.73671583	      2.22566990	      2.59363742	      7.34484046	     -6.19944370	     -0.48355550	      1.63790502
      1.26683333	     -1.10939373	      2.31430146	     -5.45554264	      0.19301099	      1.03159338	      0.32923564	    -19.09319368	     -3.83310699	     -3.97150852	    -18.37137986	     10.99258554	      8.23016612	     21.57260465	     28.44399411	      0.94345295	     -1.57698139	    -17.38529884	      2.00126569	      2.29961095	      6.81992424	     -6.19336456	     -0.74159961	      1.58229851
